<?xml version="1.0" standalone="no"?><!DOCTYPE svg PUBLIC "-//W3C//DTD SVG 1.1//EN" "http://www.w3.org/Graphics/SVG/1.1/DTD/svg11.dtd"><svg t="1778592031763" class="icon" viewBox="0 0 1024 1024" version="1.1" xmlns="http://www.w3.org/2000/svg" p-id="3430" xmlns:xlink="http://www.w3.org/1999/xlink" width="16" height="16"><path d="M826.270476 48.761905H196.36419a148.992 148.992 0 0 0-147.553523 149.211428v628.882286A148.455619 148.455619 0 0 0 197.095619 975.238095h629.808762a148.943238 148.943238 0 0 0 148.284952-148.48V197.973333A150.113524 150.113524 0 0 0 826.270476 48.761905zM511.317333 755.102476a362.22781 362.22781 0 0 1-97.182476-13.116952 117.150476 117.150476 0 0 0-26.331428 8.045714l-59.879619 37.302857c-17.554286 11.654095-23.356952 7.314286-16.822858-13.141333l13.116953-46.762667a90.209524 90.209524 0 0 0-2.169905-27.794285 251.977143 251.977143 0 0 1-118.345143-206.262858c0-144.042667 138.069333-261.753905 307.614476-261.753904a326.851048 326.851048 0 0 1 250.636191 110.372571l-286.476191 135.996952a44.78781 44.78781 0 0 1-59.14819-3.632761l-46.08-40.96c-21.162667-6.631619-28.476952 0.731429-21.869714 19.699809l49.664 120.685714c10.971429 18.285714 27.794286 24.161524 55.56419 3.632762l332.409905-202.605714a230.936381 230.936381 0 0 1 32.841143 117.735619c0.073143 144.847238-138.069333 262.558476-307.541334 262.558476z m0 0" fill="#2AAC38" p-id="3431"></path></svg>